<svg width="328" height="39" viewBox="0 0 328 39" fill="none" xmlns="http://www.w3.org/2000/svg">
<path d="M31.2749 7.8428C27.4022 7.8428 21.9311 8.16683 19.1352 10.9613C17.9247 12.1718 17.3202 14.1451 17.4771 16.3787C17.4975 16.6737 17.6937 16.925 17.9756 17.0181C18.256 17.1096 18.5641 17.0239 18.7559 16.7987C20.3108 14.9691 22.2435 13.5029 24.5046 12.4406C24.6964 12.3491 24.9231 12.3418 25.1295 12.4145C25.3111 12.4799 25.4535 12.6033 25.5276 12.7618C25.6816 13.0873 25.6322 13.516 25.1207 13.7572C25.0917 13.7717 25.0655 13.7906 25.0365 13.8037C25.0263 13.8081 25.0147 13.8066 25.006 13.811C19.4346 16.4296 16.6954 20.9983 15.4514 25.6964C14.5446 19.814 12.6294 16.3511 10.8202 14.2251C9.51095 12.5279 8.22341 11.6283 7.47943 11.1198C7.34136 11.0253 6.92435 10.7405 6.7514 10.5675C6.46803 10.2842 6.46803 9.8235 6.7514 9.54013C7.03477 9.2582 7.49687 9.2582 7.81218 9.57208C7.88923 9.6404 8.01272 9.72759 8.16966 9.83222L8.29902 9.91941C9.35108 10.6402 11.31 11.9785 13.0479 14.8601C13.2034 15.1173 13.5042 15.2554 13.7963 15.2002C14.0928 15.1479 14.3252 14.9197 14.3834 14.6247C14.7627 12.6877 14.5927 9.81328 12.8649 8.0855C10.069 5.2925 4.59789 4.96847 0.726671 4.96847C0.32553 4.9684 0 5.29393 0 5.695C0 9.56765 0.324032 15.0388 3.11846 17.8347C4.28387 19.0001 6.08147 19.5233 7.86736 19.5233C9.32486 19.5233 10.7533 19.1585 11.8476 18.5264C13.3399 21.6187 14.5316 26.2383 14.5316 33.305C14.5316 33.7061 14.8571 34.0316 15.2582 34.0316C15.6592 34.0316 15.9848 33.7061 15.9848 33.305C15.9848 29.3626 16.6605 24.6311 19.173 20.7366C20.18 21.7205 21.9137 22.3439 23.8347 22.402C23.9306 22.4049 24.0251 22.4063 24.1195 22.4063C26.0711 22.4063 27.796 21.7946 28.8815 20.7076C31.6773 17.9117 31.9999 12.4405 31.9999 8.56783C32.0015 8.16683 31.6774 7.8428 31.2749 7.8428Z" fill="#00B307"/>
<path d="M54.656 30.5L46.048 20.548V30.5H42.4V8.26H46.048V18.404L54.688 8.26H59.264L49.6 19.396L59.424 30.5H54.656ZM60.474 21.604C60.474 19.8333 60.8367 18.2653 61.562 16.9C62.3087 15.5347 63.3113 14.4787 64.57 13.732C65.85 12.964 67.258 12.58 68.794 12.58C70.1807 12.58 71.386 12.8573 72.41 13.412C73.4553 13.9453 74.2873 14.6173 74.906 15.428V12.868H78.586V30.5H74.906V27.876C74.2873 28.708 73.4447 29.4013 72.378 29.956C71.3113 30.5107 70.0953 30.788 68.73 30.788C67.2153 30.788 65.8287 30.404 64.57 29.636C63.3113 28.8467 62.3087 27.7587 61.562 26.372C60.8367 24.964 60.474 23.3747 60.474 21.604ZM74.906 21.668C74.906 20.452 74.65 19.396 74.138 18.5C73.6473 17.604 72.9967 16.9213 72.186 16.452C71.3753 15.9827 70.5007 15.748 69.562 15.748C68.6233 15.748 67.7487 15.9827 66.938 16.452C66.1273 16.9 65.466 17.572 64.954 18.468C64.4633 19.3427 64.218 20.388 64.218 21.604C64.218 22.82 64.4633 23.8867 64.954 24.804C65.466 25.7213 66.1273 26.4253 66.938 26.916C67.77 27.3853 68.6447 27.62 69.562 27.62C70.5007 27.62 71.3753 27.3853 72.186 26.916C72.9967 26.4467 73.6473 25.764 74.138 24.868C74.65 23.9507 74.906 22.884 74.906 21.668ZM88.8175 30.788C87.4308 30.788 86.1828 30.5427 85.0735 30.052C83.9855 29.54 83.1215 28.8573 82.4815 28.004C81.8415 27.1293 81.5002 26.1587 81.4575 25.092H85.2335C85.2975 25.8387 85.6495 26.468 86.2895 26.98C86.9508 27.4707 87.7722 27.716 88.7535 27.716C89.7775 27.716 90.5668 27.524 91.1215 27.14C91.6975 26.7347 91.9855 26.2227 91.9855 25.604C91.9855 24.9427 91.6655 24.452 91.0255 24.132C90.4068 23.812 89.4148 23.46 88.0495 23.076C86.7268 22.7133 85.6495 22.3613 84.8175 22.02C83.9855 21.6787 83.2602 21.156 82.6415 20.452C82.0442 19.748 81.7455 18.82 81.7455 17.668C81.7455 16.7293 82.0228 15.876 82.5775 15.108C83.1322 14.3187 83.9215 13.7 84.9455 13.252C85.9908 12.804 87.1855 12.58 88.5295 12.58C90.5348 12.58 92.1455 13.092 93.3615 14.116C94.5988 15.1187 95.2602 16.4947 95.3455 18.244H91.6975C91.6335 17.4547 91.3135 16.8253 90.7375 16.356C90.1615 15.8867 89.3828 15.652 88.4015 15.652C87.4415 15.652 86.7055 15.8333 86.1935 16.196C85.6815 16.5587 85.4255 17.0387 85.4255 17.636C85.4255 18.1053 85.5962 18.5 85.9375 18.82C86.2788 19.14 86.6948 19.396 87.1855 19.588C87.6762 19.7587 88.4015 19.9827 89.3615 20.26C90.6415 20.6013 91.6868 20.9533 92.4975 21.316C93.3295 21.6573 94.0442 22.1693 94.6415 22.852C95.2388 23.5347 95.5482 24.4413 95.5695 25.572C95.5695 26.5747 95.2922 27.4707 94.7375 28.26C94.1828 29.0493 93.3935 29.668 92.3695 30.116C91.3668 30.564 90.1828 30.788 88.8175 30.788ZM107.671 12.58C109.015 12.58 110.21 12.868 111.255 13.444C112.322 14.02 113.154 14.8733 113.751 16.004C114.37 17.1347 114.679 18.5 114.679 20.1V30.5H111.063V20.644C111.063 19.0653 110.669 17.86 109.879 17.028C109.09 16.1747 108.013 15.748 106.647 15.748C105.282 15.748 104.194 16.1747 103.383 17.028C102.594 17.86 102.199 19.0653 102.199 20.644V30.5H98.5512V6.82H102.199V14.916C102.818 14.1693 103.597 13.5933 104.535 13.188C105.495 12.7827 106.541 12.58 107.671 12.58ZM139.717 12.58C141.103 12.58 142.341 12.868 143.429 13.444C144.538 14.02 145.402 14.8733 146.021 16.004C146.661 17.1347 146.981 18.5 146.981 20.1V30.5H143.365V20.644C143.365 19.0653 142.97 17.86 142.181 17.028C141.391 16.1747 140.314 15.748 138.949 15.748C137.583 15.748 136.495 16.1747 135.685 17.028C134.895 17.86 134.501 19.0653 134.501 20.644V30.5H130.885V20.644C130.885 19.0653 130.49 17.86 129.701 17.028C128.911 16.1747 127.834 15.748 126.469 15.748C125.103 15.748 124.015 16.1747 123.205 17.028C122.415 17.86 122.021 19.0653 122.021 20.644V30.5H118.373V12.868H122.021V14.884C122.618 14.1587 123.375 13.5933 124.293 13.188C125.21 12.7827 126.191 12.58 127.237 12.58C128.645 12.58 129.903 12.8787 131.013 13.476C132.122 14.0733 132.975 14.9373 133.573 16.068C134.106 15.0013 134.938 14.1587 136.069 13.54C137.199 12.9 138.415 12.58 139.717 12.58ZM152.518 10.532C151.857 10.532 151.302 10.308 150.854 9.86C150.406 9.412 150.182 8.85733 150.182 8.196C150.182 7.53467 150.406 6.98 150.854 6.532C151.302 6.084 151.857 5.86 152.518 5.86C153.158 5.86 153.702 6.084 154.15 6.532C154.598 6.98 154.822 7.53467 154.822 8.196C154.822 8.85733 154.598 9.412 154.15 9.86C153.702 10.308 153.158 10.532 152.518 10.532ZM154.31 12.868V30.5H150.662V12.868H154.31ZM161.788 15.428C162.321 14.532 163.025 13.8387 163.9 13.348C164.796 12.836 165.852 12.58 167.068 12.58V16.356H166.14C164.711 16.356 163.623 16.7187 162.876 17.444C162.151 18.1693 161.788 19.428 161.788 21.22V30.5H158.14V12.868H161.788V15.428ZM176.789 30.724C175.296 30.724 173.952 30.468 172.757 29.956C171.563 29.4227 170.624 28.676 169.941 27.716C169.259 26.756 168.917 25.636 168.917 24.356H172.821C172.907 25.316 173.28 26.1053 173.941 26.724C174.624 27.3427 175.573 27.652 176.789 27.652C178.048 27.652 179.029 27.3533 179.733 26.756C180.437 26.1373 180.789 25.348 180.789 24.388C180.789 23.6413 180.565 23.0333 180.117 22.564C179.691 22.0947 179.147 21.732 178.485 21.476C177.845 21.22 176.949 20.9427 175.797 20.644C174.347 20.26 173.163 19.876 172.245 19.492C171.349 19.0867 170.581 18.468 169.941 17.636C169.301 16.804 168.981 15.6947 168.981 14.308C168.981 13.028 169.301 11.908 169.941 10.948C170.581 9.988 171.477 9.252 172.629 8.74C173.781 8.228 175.115 7.972 176.629 7.972C178.784 7.972 180.544 8.516 181.909 9.604C183.296 10.6707 184.064 12.1427 184.213 14.02H180.181C180.117 13.2093 179.733 12.516 179.029 11.94C178.325 11.364 177.397 11.076 176.245 11.076C175.2 11.076 174.347 11.3427 173.685 11.876C173.024 12.4093 172.693 13.1773 172.693 14.18C172.693 14.8627 172.896 15.428 173.301 15.876C173.728 16.3027 174.261 16.644 174.901 16.9C175.541 17.156 176.416 17.4333 177.525 17.732C178.997 18.1373 180.192 18.5427 181.109 18.948C182.048 19.3533 182.837 19.9827 183.477 20.836C184.139 21.668 184.469 22.788 184.469 24.196C184.469 25.3267 184.16 26.3933 183.541 27.396C182.944 28.3987 182.059 29.2093 180.885 29.828C179.733 30.4253 178.368 30.724 176.789 30.724ZM203.782 12.868V30.5H200.134V28.42C199.558 29.1453 198.8 29.7213 197.862 30.148C196.944 30.5533 195.963 30.756 194.918 30.756C193.531 30.756 192.283 30.468 191.174 29.892C190.086 29.316 189.222 28.4627 188.582 27.332C187.963 26.2013 187.654 24.836 187.654 23.236V12.868H191.27V22.692C191.27 24.2707 191.664 25.4867 192.454 26.34C193.243 27.172 194.32 27.588 195.686 27.588C197.051 27.588 198.128 27.172 198.918 26.34C199.728 25.4867 200.134 24.2707 200.134 22.692V12.868H203.782ZM211.283 15.46C211.902 14.6493 212.744 13.9667 213.811 13.412C214.878 12.8573 216.083 12.58 217.427 12.58C218.963 12.58 220.36 12.964 221.619 13.732C222.899 14.4787 223.902 15.5347 224.627 16.9C225.352 18.2653 225.715 19.8333 225.715 21.604C225.715 23.3747 225.352 24.964 224.627 26.372C223.902 27.7587 222.899 28.8467 221.619 29.636C220.36 30.404 218.963 30.788 217.427 30.788C216.083 30.788 214.888 30.5213 213.843 29.988C212.798 29.4333 211.944 28.7507 211.283 27.94V38.884H207.635V12.868H211.283V15.46ZM222.003 21.604C222.003 20.388 221.747 19.3427 221.235 18.468C220.744 17.572 220.083 16.9 219.251 16.452C218.44 15.9827 217.566 15.748 216.627 15.748C215.71 15.748 214.835 15.9827 214.003 16.452C213.192 16.9213 212.531 17.604 212.019 18.5C211.528 19.396 211.283 20.452 211.283 21.668C211.283 22.884 211.528 23.9507 212.019 24.868C212.531 25.764 213.192 26.4467 214.003 26.916C214.835 27.3853 215.71 27.62 216.627 27.62C217.566 27.62 218.44 27.3853 219.251 26.916C220.083 26.4253 220.744 25.7213 221.235 24.804C221.747 23.8867 222.003 22.82 222.003 21.604ZM244.522 21.252C244.522 21.9133 244.48 22.5107 244.394 23.044H230.922C231.029 24.452 231.552 25.5827 232.49 26.436C233.429 27.2893 234.581 27.716 235.946 27.716C237.909 27.716 239.296 26.8947 240.106 25.252H244.042C243.509 26.8733 242.538 28.2067 241.13 29.252C239.744 30.276 238.016 30.788 235.946 30.788C234.261 30.788 232.746 30.4147 231.402 29.668C230.08 28.9 229.034 27.8333 228.266 26.468C227.52 25.0813 227.146 23.4813 227.146 21.668C227.146 19.8547 227.509 18.2653 228.234 16.9C228.981 15.5133 230.016 14.4467 231.338 13.7C232.682 12.9533 234.218 12.58 235.946 12.58C237.61 12.58 239.093 12.9427 240.394 13.668C241.696 14.3933 242.709 15.4173 243.434 16.74C244.16 18.0413 244.522 19.5453 244.522 21.252ZM240.714 20.1C240.693 18.756 240.213 17.6787 239.274 16.868C238.336 16.0573 237.173 15.652 235.786 15.652C234.528 15.652 233.45 16.0573 232.554 16.868C231.658 17.6573 231.125 18.7347 230.954 20.1H240.714ZM250.801 15.428C251.334 14.532 252.038 13.8387 252.913 13.348C253.809 12.836 254.865 12.58 256.081 12.58V16.356H255.153C253.723 16.356 252.635 16.7187 251.889 17.444C251.163 18.1693 250.801 19.428 250.801 21.22V30.5H247.153V12.868H250.801V15.428ZM281.898 8.26V30.5H278.25V15.268L271.466 30.5H268.938L262.122 15.268V30.5H258.474V8.26H262.41L270.218 25.7L277.994 8.26H281.898ZM284.517 21.604C284.517 19.8333 284.879 18.2653 285.605 16.9C286.351 15.5347 287.354 14.4787 288.613 13.732C289.893 12.964 291.301 12.58 292.837 12.58C294.223 12.58 295.429 12.8573 296.453 13.412C297.498 13.9453 298.33 14.6173 298.949 15.428V12.868H302.629V30.5H298.949V27.876C298.33 28.708 297.487 29.4013 296.421 29.956C295.354 30.5107 294.138 30.788 292.773 30.788C291.258 30.788 289.871 30.404 288.613 29.636C287.354 28.8467 286.351 27.7587 285.605 26.372C284.879 24.964 284.517 23.3747 284.517 21.604ZM298.949 21.668C298.949 20.452 298.693 19.396 298.181 18.5C297.69 17.604 297.039 16.9213 296.229 16.452C295.418 15.9827 294.543 15.748 293.605 15.748C292.666 15.748 291.791 15.9827 290.981 16.452C290.17 16.9 289.509 17.572 288.997 18.468C288.506 19.3427 288.261 20.388 288.261 21.604C288.261 22.82 288.506 23.8867 288.997 24.804C289.509 25.7213 290.17 26.4253 290.981 26.916C291.813 27.3853 292.687 27.62 293.605 27.62C294.543 27.62 295.418 27.3853 296.229 26.916C297.039 26.4467 297.69 25.764 298.181 24.868C298.693 23.9507 298.949 22.884 298.949 21.668ZM310.108 15.428C310.641 14.532 311.345 13.8387 312.22 13.348C313.116 12.836 314.172 12.58 315.388 12.58V16.356H314.46C313.031 16.356 311.943 16.7187 311.196 17.444C310.471 18.1693 310.108 19.428 310.108 21.22V30.5H306.46V12.868H310.108V15.428ZM322.037 15.844V25.604C322.037 26.2653 322.187 26.7453 322.485 27.044C322.805 27.3213 323.339 27.46 324.085 27.46H326.325V30.5H323.445C321.803 30.5 320.544 30.116 319.669 29.348C318.795 28.58 318.357 27.332 318.357 25.604V15.844H316.277V12.868H318.357V8.484H322.037V12.868H326.325V15.844H322.037Z" fill="#002603"/>
</svg>
