<svg width="340" height="39" viewBox="0 0 340 39" fill="none" xmlns="http://www.w3.org/2000/svg">
<path d="M31.2749 7.8428C27.4022 7.8428 21.9311 8.16683 19.1352 10.9613C17.9247 12.1718 17.3202 14.1451 17.4771 16.3787C17.4975 16.6737 17.6937 16.925 17.9756 17.0181C18.256 17.1096 18.5641 17.0239 18.7559 16.7987C20.3108 14.9691 22.2435 13.5029 24.5046 12.4406C24.6964 12.3491 24.9231 12.3418 25.1295 12.4145C25.3111 12.4799 25.4535 12.6033 25.5276 12.7618C25.6816 13.0873 25.6322 13.516 25.1207 13.7572C25.0917 13.7717 25.0655 13.7906 25.0365 13.8037C25.0263 13.8081 25.0147 13.8066 25.006 13.811C19.4346 16.4296 16.6954 20.9983 15.4514 25.6964C14.5446 19.814 12.6294 16.3511 10.8202 14.2251C9.51095 12.5279 8.22341 11.6283 7.47943 11.1198C7.34136 11.0253 6.92435 10.7405 6.7514 10.5675C6.46803 10.2842 6.46803 9.8235 6.7514 9.54013C7.03477 9.2582 7.49687 9.2582 7.81218 9.57208C7.88923 9.6404 8.01272 9.72759 8.16966 9.83222L8.29902 9.91941C9.35108 10.6402 11.31 11.9785 13.0479 14.8601C13.2034 15.1173 13.5042 15.2554 13.7963 15.2002C14.0928 15.1479 14.3252 14.9197 14.3834 14.6247C14.7627 12.6877 14.5927 9.81328 12.8649 8.0855C10.069 5.2925 4.59789 4.96847 0.726671 4.96847C0.32553 4.9684 0 5.29393 0 5.695C0 9.56765 0.324032 15.0388 3.11846 17.8347C4.28387 19.0001 6.08147 19.5233 7.86736 19.5233C9.32486 19.5233 10.7533 19.1585 11.8476 18.5264C13.3399 21.6187 14.5316 26.2383 14.5316 33.305C14.5316 33.7061 14.8571 34.0316 15.2582 34.0316C15.6592 34.0316 15.9848 33.7061 15.9848 33.305C15.9848 29.3626 16.6605 24.6311 19.173 20.7366C20.18 21.7205 21.9137 22.3439 23.8347 22.402C23.9306 22.4049 24.0251 22.4063 24.1195 22.4063C26.0711 22.4063 27.796 21.7946 28.8815 20.7076C31.6773 17.9117 31.9999 12.4405 31.9999 8.56783C32.0015 8.16683 31.6774 7.8428 31.2749 7.8428Z" fill="#00B307"/>
<path d="M54.656 30.5L46.048 20.548V30.5H42.4V8.26H46.048V18.404L54.688 8.26H59.264L49.6 19.396L59.424 30.5H54.656ZM60.474 21.604C60.474 19.8333 60.8367 18.2653 61.562 16.9C62.3087 15.5347 63.3113 14.4787 64.57 13.732C65.85 12.964 67.258 12.58 68.794 12.58C70.1807 12.58 71.386 12.8573 72.41 13.412C73.4553 13.9453 74.2873 14.6173 74.906 15.428V12.868H78.586V30.5H74.906V27.876C74.2873 28.708 73.4447 29.4013 72.378 29.956C71.3113 30.5107 70.0953 30.788 68.73 30.788C67.2153 30.788 65.8287 30.404 64.57 29.636C63.3113 28.8467 62.3087 27.7587 61.562 26.372C60.8367 24.964 60.474 23.3747 60.474 21.604ZM74.906 21.668C74.906 20.452 74.65 19.396 74.138 18.5C73.6473 17.604 72.9967 16.9213 72.186 16.452C71.3753 15.9827 70.5007 15.748 69.562 15.748C68.6233 15.748 67.7487 15.9827 66.938 16.452C66.1273 16.9 65.466 17.572 64.954 18.468C64.4633 19.3427 64.218 20.388 64.218 21.604C64.218 22.82 64.4633 23.8867 64.954 24.804C65.466 25.7213 66.1273 26.4253 66.938 26.916C67.77 27.3853 68.6447 27.62 69.562 27.62C70.5007 27.62 71.3753 27.3853 72.186 26.916C72.9967 26.4467 73.6473 25.764 74.138 24.868C74.65 23.9507 74.906 22.884 74.906 21.668ZM88.8175 30.788C87.4308 30.788 86.1828 30.5427 85.0735 30.052C83.9855 29.54 83.1215 28.8573 82.4815 28.004C81.8415 27.1293 81.5002 26.1587 81.4575 25.092H85.2335C85.2975 25.8387 85.6495 26.468 86.2895 26.98C86.9508 27.4707 87.7722 27.716 88.7535 27.716C89.7775 27.716 90.5668 27.524 91.1215 27.14C91.6975 26.7347 91.9855 26.2227 91.9855 25.604C91.9855 24.9427 91.6655 24.452 91.0255 24.132C90.4068 23.812 89.4148 23.46 88.0495 23.076C86.7268 22.7133 85.6495 22.3613 84.8175 22.02C83.9855 21.6787 83.2602 21.156 82.6415 20.452C82.0442 19.748 81.7455 18.82 81.7455 17.668C81.7455 16.7293 82.0228 15.876 82.5775 15.108C83.1322 14.3187 83.9215 13.7 84.9455 13.252C85.9908 12.804 87.1855 12.58 88.5295 12.58C90.5348 12.58 92.1455 13.092 93.3615 14.116C94.5988 15.1187 95.2602 16.4947 95.3455 18.244H91.6975C91.6335 17.4547 91.3135 16.8253 90.7375 16.356C90.1615 15.8867 89.3828 15.652 88.4015 15.652C87.4415 15.652 86.7055 15.8333 86.1935 16.196C85.6815 16.5587 85.4255 17.0387 85.4255 17.636C85.4255 18.1053 85.5962 18.5 85.9375 18.82C86.2788 19.14 86.6948 19.396 87.1855 19.588C87.6762 19.7587 88.4015 19.9827 89.3615 20.26C90.6415 20.6013 91.6868 20.9533 92.4975 21.316C93.3295 21.6573 94.0442 22.1693 94.6415 22.852C95.2388 23.5347 95.5482 24.4413 95.5695 25.572C95.5695 26.5747 95.2922 27.4707 94.7375 28.26C94.1828 29.0493 93.3935 29.668 92.3695 30.116C91.3668 30.564 90.1828 30.788 88.8175 30.788ZM107.671 12.58C109.015 12.58 110.21 12.868 111.255 13.444C112.322 14.02 113.154 14.8733 113.751 16.004C114.37 17.1347 114.679 18.5 114.679 20.1V30.5H111.063V20.644C111.063 19.0653 110.669 17.86 109.879 17.028C109.09 16.1747 108.013 15.748 106.647 15.748C105.282 15.748 104.194 16.1747 103.383 17.028C102.594 17.86 102.199 19.0653 102.199 20.644V30.5H98.5512V6.82H102.199V14.916C102.818 14.1693 103.597 13.5933 104.535 13.188C105.495 12.7827 106.541 12.58 107.671 12.58ZM139.717 12.58C141.103 12.58 142.341 12.868 143.429 13.444C144.538 14.02 145.402 14.8733 146.021 16.004C146.661 17.1347 146.981 18.5 146.981 20.1V30.5H143.365V20.644C143.365 19.0653 142.97 17.86 142.181 17.028C141.391 16.1747 140.314 15.748 138.949 15.748C137.583 15.748 136.495 16.1747 135.685 17.028C134.895 17.86 134.501 19.0653 134.501 20.644V30.5H130.885V20.644C130.885 19.0653 130.49 17.86 129.701 17.028C128.911 16.1747 127.834 15.748 126.469 15.748C125.103 15.748 124.015 16.1747 123.205 17.028C122.415 17.86 122.021 19.0653 122.021 20.644V30.5H118.373V12.868H122.021V14.884C122.618 14.1587 123.375 13.5933 124.293 13.188C125.21 12.7827 126.191 12.58 127.237 12.58C128.645 12.58 129.903 12.8787 131.013 13.476C132.122 14.0733 132.975 14.9373 133.573 16.068C134.106 15.0013 134.938 14.1587 136.069 13.54C137.199 12.9 138.415 12.58 139.717 12.58ZM152.518 10.532C151.857 10.532 151.302 10.308 150.854 9.86C150.406 9.412 150.182 8.85733 150.182 8.196C150.182 7.53467 150.406 6.98 150.854 6.532C151.302 6.084 151.857 5.86 152.518 5.86C153.158 5.86 153.702 6.084 154.15 6.532C154.598 6.98 154.822 7.53467 154.822 8.196C154.822 8.85733 154.598 9.412 154.15 9.86C153.702 10.308 153.158 10.532 152.518 10.532ZM154.31 12.868V30.5H150.662V12.868H154.31ZM161.788 15.428C162.321 14.532 163.025 13.8387 163.9 13.348C164.796 12.836 165.852 12.58 167.068 12.58V16.356H166.14C164.711 16.356 163.623 16.7187 162.876 17.444C162.151 18.1693 161.788 19.428 161.788 21.22V30.5H158.14V12.868H161.788V15.428ZM184.142 30.724C182.648 30.724 181.304 30.468 180.11 29.956C178.915 29.4227 177.976 28.676 177.294 27.716C176.611 26.756 176.27 25.636 176.27 24.356H180.174C180.259 25.316 180.632 26.1053 181.294 26.724C181.976 27.3427 182.926 27.652 184.142 27.652C185.4 27.652 186.382 27.3533 187.086 26.756C187.79 26.1373 188.142 25.348 188.142 24.388C188.142 23.6413 187.918 23.0333 187.47 22.564C187.043 22.0947 186.499 21.732 185.838 21.476C185.198 21.22 184.302 20.9427 183.15 20.644C181.699 20.26 180.515 19.876 179.598 19.492C178.702 19.0867 177.934 18.468 177.294 17.636C176.654 16.804 176.334 15.6947 176.334 14.308C176.334 13.028 176.654 11.908 177.294 10.948C177.934 9.988 178.83 9.252 179.982 8.74C181.134 8.228 182.467 7.972 183.982 7.972C186.136 7.972 187.896 8.516 189.262 9.604C190.648 10.6707 191.416 12.1427 191.566 14.02H187.534C187.47 13.2093 187.086 12.516 186.382 11.94C185.678 11.364 184.75 11.076 183.598 11.076C182.552 11.076 181.699 11.3427 181.038 11.876C180.376 12.4093 180.046 13.1773 180.046 14.18C180.046 14.8627 180.248 15.428 180.654 15.876C181.08 16.3027 181.614 16.644 182.254 16.9C182.894 17.156 183.768 17.4333 184.878 17.732C186.35 18.1373 187.544 18.5427 188.462 18.948C189.4 19.3533 190.19 19.9827 190.83 20.836C191.491 21.668 191.822 22.788 191.822 24.196C191.822 25.3267 191.512 26.3933 190.894 27.396C190.296 28.3987 189.411 29.2093 188.238 29.828C187.086 30.4253 185.72 30.724 184.142 30.724ZM211.134 12.868V30.5H207.486V28.42C206.91 29.1453 206.153 29.7213 205.214 30.148C204.297 30.5533 203.316 30.756 202.27 30.756C200.884 30.756 199.636 30.468 198.526 29.892C197.438 29.316 196.574 28.4627 195.934 27.332C195.316 26.2013 195.006 24.836 195.006 23.236V12.868H198.622V22.692C198.622 24.2707 199.017 25.4867 199.806 26.34C200.596 27.172 201.673 27.588 203.038 27.588C204.404 27.588 205.481 27.172 206.27 26.34C207.081 25.4867 207.486 24.2707 207.486 22.692V12.868H211.134ZM218.635 15.46C219.254 14.6493 220.097 13.9667 221.163 13.412C222.23 12.8573 223.435 12.58 224.779 12.58C226.315 12.58 227.713 12.964 228.971 13.732C230.251 14.4787 231.254 15.5347 231.979 16.9C232.705 18.2653 233.067 19.8333 233.067 21.604C233.067 23.3747 232.705 24.964 231.979 26.372C231.254 27.7587 230.251 28.8467 228.971 29.636C227.713 30.404 226.315 30.788 224.779 30.788C223.435 30.788 222.241 30.5213 221.195 29.988C220.15 29.4333 219.297 28.7507 218.635 27.94V38.884H214.987V12.868H218.635V15.46ZM229.355 21.604C229.355 20.388 229.099 19.3427 228.587 18.468C228.097 17.572 227.435 16.9 226.603 16.452C225.793 15.9827 224.918 15.748 223.979 15.748C223.062 15.748 222.187 15.9827 221.355 16.452C220.545 16.9213 219.883 17.604 219.371 18.5C218.881 19.396 218.635 20.452 218.635 21.668C218.635 22.884 218.881 23.9507 219.371 24.868C219.883 25.764 220.545 26.4467 221.355 26.916C222.187 27.3853 223.062 27.62 223.979 27.62C224.918 27.62 225.793 27.3853 226.603 26.916C227.435 26.4253 228.097 25.7213 228.587 24.804C229.099 23.8867 229.355 22.82 229.355 21.604ZM251.875 21.252C251.875 21.9133 251.832 22.5107 251.747 23.044H238.275C238.382 24.452 238.904 25.5827 239.843 26.436C240.782 27.2893 241.934 27.716 243.299 27.716C245.262 27.716 246.648 26.8947 247.459 25.252H251.395C250.862 26.8733 249.891 28.2067 248.483 29.252C247.096 30.276 245.368 30.788 243.299 30.788C241.614 30.788 240.099 30.4147 238.755 29.668C237.432 28.9 236.387 27.8333 235.619 26.468C234.872 25.0813 234.499 23.4813 234.499 21.668C234.499 19.8547 234.862 18.2653 235.587 16.9C236.334 15.5133 237.368 14.4467 238.691 13.7C240.035 12.9533 241.571 12.58 243.299 12.58C244.963 12.58 246.446 12.9427 247.747 13.668C249.048 14.3933 250.062 15.4173 250.787 16.74C251.512 18.0413 251.875 19.5453 251.875 21.252ZM248.067 20.1C248.046 18.756 247.566 17.6787 246.627 16.868C245.688 16.0573 244.526 15.652 243.139 15.652C241.88 15.652 240.803 16.0573 239.907 16.868C239.011 17.6573 238.478 18.7347 238.307 20.1H248.067ZM258.153 15.428C258.686 14.532 259.39 13.8387 260.265 13.348C261.161 12.836 262.217 12.58 263.433 12.58V16.356H262.505C261.076 16.356 259.988 16.7187 259.241 17.444C258.516 18.1693 258.153 19.428 258.153 21.22V30.5H254.505V12.868H258.153V15.428ZM287.17 12.58C288.557 12.58 289.794 12.868 290.882 13.444C291.992 14.02 292.856 14.8733 293.474 16.004C294.114 17.1347 294.434 18.5 294.434 20.1V30.5H290.818V20.644C290.818 19.0653 290.424 17.86 289.634 17.028C288.845 16.1747 287.768 15.748 286.402 15.748C285.037 15.748 283.949 16.1747 283.138 17.028C282.349 17.86 281.954 19.0653 281.954 20.644V30.5H278.338V20.644C278.338 19.0653 277.944 17.86 277.154 17.028C276.365 16.1747 275.288 15.748 273.922 15.748C272.557 15.748 271.469 16.1747 270.658 17.028C269.869 17.86 269.474 19.0653 269.474 20.644V30.5H265.826V12.868H269.474V14.884C270.072 14.1587 270.829 13.5933 271.746 13.188C272.664 12.7827 273.645 12.58 274.69 12.58C276.098 12.58 277.357 12.8787 278.466 13.476C279.576 14.0733 280.429 14.9373 281.026 16.068C281.56 15.0013 282.392 14.1587 283.522 13.54C284.653 12.9 285.869 12.58 287.17 12.58ZM296.9 21.604C296.9 19.8333 297.263 18.2653 297.988 16.9C298.735 15.5347 299.738 14.4787 300.996 13.732C302.276 12.964 303.684 12.58 305.22 12.58C306.607 12.58 307.812 12.8573 308.836 13.412C309.882 13.9453 310.714 14.6173 311.332 15.428V12.868H315.012V30.5H311.332V27.876C310.714 28.708 309.871 29.4013 308.804 29.956C307.738 30.5107 306.522 30.788 305.156 30.788C303.642 30.788 302.255 30.404 300.996 29.636C299.738 28.8467 298.735 27.7587 297.988 26.372C297.263 24.964 296.9 23.3747 296.9 21.604ZM311.332 21.668C311.332 20.452 311.076 19.396 310.564 18.5C310.074 17.604 309.423 16.9213 308.612 16.452C307.802 15.9827 306.927 15.748 305.988 15.748C305.05 15.748 304.175 15.9827 303.364 16.452C302.554 16.9 301.892 17.572 301.38 18.468C300.89 19.3427 300.644 20.388 300.644 21.604C300.644 22.82 300.89 23.8867 301.38 24.804C301.892 25.7213 302.554 26.4253 303.364 26.916C304.196 27.3853 305.071 27.62 305.988 27.62C306.927 27.62 307.802 27.3853 308.612 26.916C309.423 26.4467 310.074 25.764 310.564 24.868C311.076 23.9507 311.332 22.884 311.332 21.668ZM322.492 15.428C323.025 14.532 323.729 13.8387 324.604 13.348C325.5 12.836 326.556 12.58 327.772 12.58V16.356H326.844C325.414 16.356 324.326 16.7187 323.58 17.444C322.854 18.1693 322.492 19.428 322.492 21.22V30.5H318.844V12.868H322.492V15.428ZM334.421 15.844V25.604C334.421 26.2653 334.57 26.7453 334.869 27.044C335.189 27.3213 335.722 27.46 336.469 27.46H338.709V30.5H335.829C334.186 30.5 332.928 30.116 332.053 29.348C331.178 28.58 330.741 27.332 330.741 25.604V15.844H328.661V12.868H330.741V8.484H334.421V12.868H338.709V15.844H334.421Z" fill="#002603"/>
</svg>
